<?xml version="1.0" encoding="UTF-8" standalone="no"?>
<!-- Created with Inkscape (http://www.inkscape.org/) -->

<svg
   width="400"
   height="400"
   viewBox="0 0 400 400"
   version="1.1"
   id="svg1"
   inkscape:version="1.4.3 (0d15f75, 2025-12-25)"
   sodipodi:docname="400pxSVG logo NewColor1.svg"
   xmlns:inkscape="http://www.inkscape.org/namespaces/inkscape"
   xmlns:sodipodi="http://sodipodi.sourceforge.net/DTD/sodipodi-0.dtd"
   xmlns="http://www.w3.org/2000/svg"
   xmlns:svg="http://www.w3.org/2000/svg">
  <sodipodi:namedview
     id="namedview1"
     pagecolor="#505050"
     bordercolor="#eeeeee"
     borderopacity="1"
     inkscape:showpageshadow="0"
     inkscape:pageopacity="0"
     inkscape:pagecheckerboard="0"
     inkscape:deskcolor="#505050"
     inkscape:document-units="px"
     inkscape:zoom="2.1018749"
     inkscape:cx="279.75024"
     inkscape:cy="239.07227"
     inkscape:window-width="2560"
     inkscape:window-height="1369"
     inkscape:window-x="2552"
     inkscape:window-y="-8"
     inkscape:window-maximized="1"
     inkscape:current-layer="layer1" />
  <defs
     id="defs1" />
  <g
     inkscape:label="Layer 1"
     inkscape:groupmode="layer"
     id="layer1">
    <path
       class="st5"
       d="m 292.41513,365.85042 -88.30872,-239.34236 -2.9916,-8.08573 -2.99161,-8.11409 -2.92104,8.1282 -2.92104,8.11394 -36.19558,100.81138 c -0.79024,0.62091 -1.45346,1.38291 -1.9897,2.24368 -0.83257,1.35469 -1.29824,2.96349 -1.28413,4.64268 0,0.5927 0.0705,1.17129 0.18346,1.73577 l -46.86375,130.51565 c -3.57016,1.14303 -6.12431,4.52975 -6.1102,8.45269 0.0282,4.89664 4.00762,8.86192 8.91836,8.83369 4.89664,-0.0282 8.86192,-4.0076 8.83369,-8.91835 -0.0141,-1.63692 -0.45156,-3.17505 -1.2559,-4.47329 l 45.72072,-127.34061 c 2.20136,-0.12698 4.19106,-1.05842 5.64453,-2.51188 l 66.33737,-0.29628 47.58343,128.97752 c -0.94547,1.42525 -1.49582,3.11861 -1.48169,4.93897 0.0282,4.89663 4.0076,8.86192 8.91835,8.83369 4.88252,-0.0282 8.86192,-4.00762 8.83369,-8.91836 0,-1.39702 -0.32455,-2.70938 -0.93134,-3.85239 -0.94546,-1.97559 -2.65294,-3.55605 -4.7273,-4.37452 z m -183.47555,13.51866 c -2.44126,0.0141 -4.44507,-1.97558 -4.45918,-4.41685 0,-0.86079 0.25401,-1.69336 0.70556,-2.37069 0.77613,-1.24181 2.14492,-2.07438 3.7254,-2.07438 2.44125,-0.0141 4.44507,1.97559 4.45918,4.41685 0,0.19757 -0.0141,0.39511 -0.0423,0.57857 -0.29633,2.15904 -2.14491,3.8524 -4.38862,3.8665 z m 80.44872,-158.4844 c -2.37071,0.0141 -4.33219,-1.89096 -4.4592,-4.24751 v -0.18341 c 0,-0.18341 0,-0.35285 0.0141,-0.53626 0.15522,-1.15718 0.71968,-2.17313 1.58046,-2.89281 0.77613,-0.62092 1.74981,-1.03006 2.80816,-1.03006 1.15713,0 2.20137,0.43736 3.00571,1.18525 0.69146,0.62092 1.19946,1.45346 1.38291,2.44134 0.0423,0.26806 0.0705,0.53612 0.0705,0.80433 v 0.18341 c -0.0847,2.34243 -2.03204,4.26161 -4.40273,4.27572 z m 18.24594,-18.58457 c -2.44125,0.0141 -4.44507,-1.97562 -4.45918,-4.41682 0,-0.18355 0,-0.35285 0.0141,-0.53626 0.15522,-1.15718 0.71968,-2.17313 1.58048,-2.89281 0.77612,-0.62091 1.74979,-1.0302 2.80814,-1.0302 1.15714,0 2.20138,0.4375 3.00572,1.18539 0.69146,0.62092 1.19946,1.45346 1.38292,2.4412 0.0423,0.2682 0.0705,0.53627 0.0705,0.80433 0.0282,2.42722 -1.96148,4.43106 -4.40274,4.44517 z m -9.35581,-59.5358 18.26006,49.51678 -2.04615,0.0141 c -1.03011,-1.29827 -2.42714,-2.30026 -4.02173,-2.82227 -0.91723,-0.31053 -1.8909,-0.47983 -2.89282,-0.47983 -0.70556,0 -1.42524,0.0988 -2.08847,0.28217 -1.93326,0.47983 -3.62662,1.59468 -4.79785,3.07636 -0.26812,0.29628 -0.46568,0.60681 -0.66324,0.91719 -0.83256,1.3547 -1.29824,2.96336 -1.28413,4.64269 0.0141,2.10259 0.74791,4.03574 1.96148,5.53153 1.65102,2.01794 4.13462,3.3162 6.95689,3.30209 2.79404,-0.0141 5.29175,-1.32648 6.91455,-3.35853 l 6.05375,-0.0282 2.80816,7.57783 -27.0232,0.11287 c -1.04424,-1.39703 -2.4977,-2.45531 -4.19106,-3.00568 -0.91724,-0.31053 -1.89092,-0.47983 -2.89282,-0.47983 -0.70557,0 -1.42524,0.0988 -2.08849,0.28231 -2.01791,0.4938 -3.76772,1.67919 -4.95307,3.25963 -0.18345,0.23998 -0.35278,0.49394 -0.50801,0.73378 -0.83257,1.3547 -1.29825,2.9635 -1.28412,4.64269 v 0.18341 c 0.0564,2.13081 0.83255,4.03588 2.1167,5.53167 1.6228,1.91918 4.07816,3.13265 6.80165,3.11854 2.70937,-0.0141 5.13653,-1.24169 6.75933,-3.17498 l 31.35538,-0.14108 2.65294,7.19675 -60.98919,0.26806 c -0.381,-0.63502 -0.84668,-1.21347 -1.41114,-1.72152 l 1.97559,-5.48934 1.98971,-5.55988 1.98969,-5.55988 2.72348,-7.6059 1.98971,-5.55988 1.9897,-5.55989 z m -40.92287,92.30225 c -0.0706,-0.26806 -0.0847,-0.53627 -0.0988,-0.81844 0,-0.18341 0,-0.35271 0.0141,-0.53626 0.15523,-1.15704 0.71968,-2.17314 1.58048,-2.89281 0.77613,-0.62092 1.7498,-1.03006 2.80815,-1.03006 1.15713,0 2.20138,0.43736 3.00572,1.18525 0.55034,0.50805 1.0019,1.14307 1.22769,1.87686 0.0705,0.18341 0.11287,0.35285 0.15522,0.55037 0.0423,0.26806 0.0705,0.53627 0.0705,0.80433 0,0.28217 -0.0141,0.55037 -0.0847,0.81843 -0.21167,1.22772 -0.94546,2.286 -1.96147,2.92103 -0.69146,0.45161 -1.50993,0.71967 -2.37071,0.71967 -2.13081,0 -3.95118,-1.53811 -4.3463,-3.59837 z m 131.88452,143.51229 c -2.20136,0.0141 -4.02173,-1.58047 -4.38862,-3.68307 -0.0423,-0.23988 -0.0705,-0.49389 -0.0705,-0.73378 0,-1.36879 0.60678,-2.59649 1.60869,-3.42906 0.77613,-0.62089 1.7498,-1.03012 2.80815,-1.03012 1.6228,-0.0141 3.04806,0.8749 3.82418,2.17315 0.2681,0.43745 0.46566,0.93134 0.56445,1.43935 0.0423,0.26812 0.0705,0.53624 0.0705,0.80434 0.0141,2.44127 -1.97558,4.44507 -4.41685,4.45919 z"
       id="path61"
       style="fill:#0a84ff;stroke-width:0.141113;fill-opacity:1" />
    <path
       class="st5"
       d="M 318.37998,381.73978 203.86652,71.332768 200.8608,63.247038 v -0.0282 l -2.96338,-8.08588 -2.92104,8.11409 -2.92105,8.11395 L 80.307677,382.68526 h -0.0282 c -3.57017,1.14301 -6.16666,4.51562 -6.15254,8.48091 0.0282,4.89664 4.03584,8.86192 8.91836,8.83369 4.89663,-0.0282 8.86192,-4.00761 8.83369,-8.91836 -0.0141,-1.63691 -0.45155,-3.14683 -1.21357,-4.45918 l 97.438753,-271.43154 2.6106,-7.23907 7.32378,-20.405002 7.49312,20.334452 2.66704,7.22497 99.69658,270.2885 c -0.8608,1.38291 -1.36881,3.01983 -1.3547,4.75553 0.0282,4.89662 4.00762,8.8619 8.91837,8.83369 4.88252,-0.0282 8.86191,-4.00762 8.8337,-8.91836 0,-1.39702 -0.32457,-2.70938 -0.93135,-3.8524 -1.0019,-2.07437 -2.79405,-3.68305 -4.98131,-4.4733 z M 83.017057,395.5689 c -2.44126,0.0141 -4.44507,-1.97559 -4.45919,-4.41685 0,-1.28413 0.55035,-2.46949 1.45347,-3.28795 0.77613,-0.71967 1.82037,-1.15712 2.96338,-1.17123 2.24371,-0.0141 4.1064,1.65102 4.41686,3.82417 0.0282,0.19756 0.0423,0.39512 0.0423,0.59267 0.0141,2.44126 -1.97558,4.44507 -4.41684,4.45919 z m 232.427783,-1.01602 c -2.44127,0.0141 -4.44507,-1.97559 -4.4592,-4.41684 0,-0.15524 0,-0.33868 0.0141,-0.4939 0.12698,-1.17125 0.70557,-2.20138 1.58046,-2.93516 0.77613,-0.6209 1.74981,-1.03014 2.80816,-1.03014 1.19947,0 2.27192,0.45158 3.06216,1.2277 0.66324,0.62089 1.14301,1.45346 1.32646,2.38482 0.0423,0.2681 0.0706,0.53622 0.0706,0.80434 0.0282,2.44126 -1.96148,4.44507 -4.40273,4.45918 z"
       id="path62"
       style="fill:#0a84ff;stroke-width:0.141113;fill-opacity:1" />
    <path
       class="st5"
       d="m 333.25333,358.21619 c -1.03013,-2.1308 -2.85048,-3.75361 -5.09419,-4.50151 L 214.46413,45.551438 h -0.0282 l -10.8234,-29.379845 -2.9916,-8.1140859 v -0.02822 L 197.64344,-7.9016194e-6 194.72239,8.0716121 191.80135,16.199808 181.21785,45.692528 70.330987,354.6178 c -3.89472,0.94546 -6.77344,4.47329 -6.74522,8.63613 0.0282,4.89665 4.00762,8.86193 8.91837,8.83371 4.88252,-0.0282 8.86191,-4.00762 8.83369,-8.91837 0,-1.39703 -0.32456,-2.70937 -0.93134,-3.85239 L 187.87839,60.015488 l 2.89283,-8.08573 v -0.0282 l 0.90313,-2.46955 0.508,-1.43935 5.61632,-15.607124 5.7433,15.578904 0.52213,1.41113 0.90312,2.4412 2.99161,8.11409 109.78616,297.579792 c -0.83257,1.35468 -1.29823,2.96338 -1.28412,4.64263 0.0282,4.89663 4.00762,8.86191 8.91835,8.83369 4.88253,-0.0282 8.86192,-4.00762 8.83371,-8.91836 -0.0282,-1.39702 -0.35279,-2.69527 -0.95958,-3.8524 z m -260.777443,9.44049 c -2.44125,0.0141 -4.44507,-1.97559 -4.45918,-4.41685 0,-1.3688 0.60679,-2.59649 1.6087,-3.42905 0.77612,-0.6209 1.7498,-1.03013 2.80815,-1.03013 2.17314,-0.0141 3.97939,1.55224 4.38863,3.6266 0.0423,0.26812 0.0705,0.53624 0.0705,0.80436 0.0141,2.42714 -1.97559,4.43096 -4.41685,4.44507 z m 252.846883,-1.10069 c -2.44127,0.0141 -4.44507,-1.97559 -4.45919,-4.41684 0,-0.18345 0,-0.35278 0.0141,-0.53624 0.15523,-1.15712 0.71968,-2.17314 1.58047,-2.89282 0.77612,-0.6209 1.74981,-1.03013 2.80816,-1.03013 1.15712,0 2.20136,0.43746 3.0057,1.18535 0.69146,0.6209 1.19946,1.45348 1.38292,2.44127 0.0423,0.26812 0.0705,0.53622 0.0705,0.80434 0.0282,2.42716 -1.96148,4.43096 -4.40273,4.44507 z"
       id="path63"
       style="fill:#0a84ff;stroke-width:0.141113;fill-opacity:1" />
    <g
       id="g71"
       style="display:inline;fill:#fefcff;fill-opacity:1"
       transform="matrix(0.14111333,0,0,0.14111333,-0.3385946,-4.9016194e-6)">
		<path
   class="st6"
   d="m 527.4,2381.8 -107.5,-71 18.2,-51 128.2,13 -11.4,31.8 -21.4,-1.6 -12.8,35.9 17.7,11.9 z m -29.2,-56.1 9.9,-27.7 -53.4,-7.1 -2.2,6 z"
   id="path64"
   style="fill:#fefcff;fill-opacity:1" />

		<path
   class="st6"
   d="m 661.7,2012.5 c -1.1,3.2 -2.7,7.1 -4.8,11.7 -2,4.6 -4.2,9.3 -6.5,14 -2.3,4.7 -4.3,8.9 -6.1,12.5 l -120.6,-43.1 10.9,-30.5 36,12.9 c 0,-1.9 0.2,-4.1 0.5,-6.8 0.3,-2.7 0.7,-5.4 1.2,-8.2 0.5,-2.7 1.2,-5.2 1.9,-7.3 3,-8.5 7.2,-14.7 12.6,-18.4 5.3,-3.8 11.7,-5.5 19,-5.3 7.3,0.2 15.7,2 25.1,5.4 11.7,4.2 20.5,8.9 26.4,14.2 5.9,5.2 9.2,11.8 9.8,19.6 0.6,7.6 -1.2,17.4 -5.4,29.3 z m -24.6,-9.2 c 1.6,-4.4 1.8,-7.9 0.8,-10.6 -1,-2.7 -3,-5 -6,-7 -3,-1.9 -6.9,-3.8 -11.5,-5.4 -5.1,-1.8 -9.3,-2.9 -12.5,-3.2 -3.2,-0.3 -5.8,0.2 -7.7,1.5 -1.9,1.3 -3.4,3.5 -4.5,6.4 -0.5,1.3 -0.8,2.8 -1.1,4.4 -0.3,1.6 -0.5,3.2 -0.6,4.8 -0.2,1.5 -0.2,2.9 -0.1,4 l 39.3,14.1 c 0.5,-1.1 1.2,-2.6 2,-4.4 0.8,-1.8 1.5,-3.3 1.9,-4.6 z"
   id="path65"
   style="fill:#fefcff;fill-opacity:1" />

		<path
   class="st6"
   d="m 770.1,1709 c -1.7,4.9 -3.8,8.9 -6.3,12.3 -2.5,3.3 -5.4,5.9 -8.7,7.7 -3.3,1.8 -7.1,2.9 -11.3,3.4 -4.2,0.4 -8.9,0.2 -14.2,-0.8 -5.2,-0.9 -11,-2.5 -17.2,-4.8 -9.7,-3.5 -17.6,-7.7 -23.6,-12.6 -6,-4.9 -9.7,-10.9 -11.4,-17.9 -1.7,-7 -0.8,-15.2 2.6,-24.5 0.5,-1.5 1.3,-3.3 2.2,-5.3 0.9,-2 1.8,-4 2.7,-6 0.9,-2 1.7,-3.7 2.5,-5 l -33.6,-12 10.9,-30.5 121.8,43.5 -10.8,30.2 -4.6,-1.4 c 0.4,1.9 0.7,4.2 0.8,7 0.2,2.8 0.1,5.7 -0.1,8.6 -0.1,2.7 -0.7,5.5 -1.7,8.1 z m -21.5,-17.7 c 0.5,-1.5 1,-3.1 1.2,-4.8 0.3,-1.6 0.4,-3.2 0.5,-4.8 0.1,-1.6 0.2,-2.8 0.2,-3.7 l -39,-13.9 c -0.5,0.7 -1.1,1.8 -1.7,3 -0.6,1.3 -1.2,2.6 -1.8,4 -0.6,1.4 -1.1,2.6 -1.5,3.7 -1.3,3.7 -1.4,6.8 -0.3,9.3 1.1,2.5 3.1,4.8 6.1,6.7 2.9,1.9 6.6,3.7 11,5.2 3.7,1.3 7,2.2 9.8,2.7 2.8,0.5 5.3,0.5 7.3,0.1 2,-0.4 3.7,-1.2 5,-2.5 1.5,-1.4 2.5,-3 3.2,-5 z"
   id="path66"
   style="fill:#fefcff;fill-opacity:1" />

		<path
   class="st6"
   d="m 880.8,1399.1 c -2.8,7.7 -6.6,13.2 -11.5,16.4 -4.9,3.3 -10.9,4.6 -18.1,4 -7.2,-0.6 -15.7,-2.6 -25.4,-6.1 l -45.4,-16.2 10.8,-30.4 43.7,15.6 c 5.1,1.8 9.2,3 12.3,3.4 3.1,0.4 5.6,0.1 7.3,-1 1.8,-1.1 3.2,-3.1 4.2,-5.9 0.9,-2.6 1.5,-5.2 1.7,-7.9 0.2,-2.7 0.3,-4.9 0.1,-6.7 l -60.7,-21.7 10.8,-30.4 87.5,31.3 -10.8,30.2 -4.9,-1.7 c 0.7,4.9 1,9.5 0.9,13.6 0.2,4.2 -0.7,8.6 -2.5,13.5 z"
   id="path67"
   style="fill:#fefcff;fill-opacity:1" />

		<path
   class="st6"
   d="m 980.1,1114.6 -121.8,-43.5 10.9,-30.5 121.8,43.5 z"
   id="path68"
   style="fill:#fefcff;fill-opacity:1" />

		<path
   class="st6"
   d="m 1073,854.8 -121.8,-43.5 10.9,-30.5 121.8,43.5 z"
   id="path69"
   style="fill:#fefcff;fill-opacity:1" />

		<path
   class="st6"
   d="m 1177,570.2 c -3.6,10.1 -8.6,16.8 -15,20.1 -6.4,3.3 -14.5,3.2 -24.2,-0.3 -7,-2.5 -11.8,-5.7 -14.6,-9.7 -2.8,-4 -4,-8.8 -3.7,-14.4 0.3,-5.6 1.6,-12.1 3.8,-19.3 l 5.2,-18.4 -3.8,-1.4 c -2.9,-1 -5.3,-0.8 -7.1,0.6 -1.8,1.4 -3.3,3.8 -4.5,7.1 -1.3,3.6 -2.6,7.6 -4,12.2 -1.4,4.6 -2.7,9.1 -3.8,13.5 -1.2,4.4 -2.2,8.2 -3,11.6 l -21,-6.5 c 0.4,-3.6 1,-7.8 1.8,-12.7 0.8,-4.8 1.9,-9.9 3.1,-15 1.3,-5.2 2.7,-9.9 4.2,-14.3 2.8,-7.9 6.1,-14.5 9.9,-19.6 3.8,-5.1 8.4,-8.4 13.7,-9.9 5.4,-1.5 11.9,-0.8 19.7,1.9 l 36.9,13.2 c 1.2,0 2.3,-0.5 3.5,-1.5 1.1,-1 2.1,-2.2 2.8,-3.5 l 19.5,7.6 c -0.6,1.9 -1.1,4 -1.6,6.2 -0.5,2.2 -1.1,4.2 -1.8,6.1 -0.7,1.8 -1.3,3.3 -1.8,4.5 -1.4,3.5 -3.1,6.2 -5.2,8.2 -2.1,1.9 -3.9,3.2 -5.4,3.9 0.2,2.1 0.2,4.8 0.2,8.1 -0.1,3.3 -0.4,6.9 -1,10.7 -0.5,3.6 -1.5,7.3 -2.8,11 z m -18.4,-15.4 c 0.6,-1.8 1.1,-3.6 1.3,-5.5 0.2,-1.9 0.3,-3.7 0.3,-5.5 0,-1.8 -0.1,-3.3 -0.2,-4.4 l -14.3,-5.1 -3.4,13.4 c -0.8,2.9 -0.7,5.3 0.3,7.2 1,1.9 2.7,3.3 5.3,4.2 2.6,0.9 4.8,1 6.6,0.4 1.8,-0.7 3.2,-2.2 4.1,-4.7 z"
   id="path70"
   style="fill:#fefcff;fill-opacity:1" />

		<path
   class="st6"
   d="m 1275.9,286.9 -121.9,-43.5 10.8,-30.4 36.4,13 c 0.1,-2.1 0.3,-4.6 0.6,-7.4 0.3,-2.8 0.7,-5.7 1.2,-8.6 0.5,-2.9 1.1,-5.4 1.9,-7.5 2.2,-6.3 4.9,-11.3 8,-15 3.1,-3.7 6.8,-6.2 11.1,-7.5 4.3,-1.3 9.5,-1.5 15.5,-0.6 6,0.9 13.1,2.9 21.2,5.8 l 45.6,16.3 -10.9,30.5 -43,-15.4 c -5,-1.8 -9.1,-2.9 -12.3,-3.4 -3.2,-0.5 -5.8,-0.2 -7.8,0.8 -1.9,1 -3.5,3.1 -4.6,6.2 -0.6,1.5 -1,3.2 -1.3,5 -0.3,1.8 -0.6,3.5 -0.8,5.1 -0.2,1.7 -0.3,3.1 -0.4,4.3 l 61.3,21.9 z"
   id="path71"
   style="fill:#fefcff;fill-opacity:1" />

	</g>
    <g
       id="g81"
       style="display:inline;fill:#fefcff;fill-opacity:1"
       transform="matrix(0.14111333,0,0,0.14111333,-0.3385946,-4.9016194e-6)">
		<path
   class="st6"
   d="m 1493.3,194.8 122,-14.1 18,48.3 -101.5,69.2 -11.2,-30.1 16.6,-11.9 -12.7,-34 -20.2,2.2 z m 55.8,22.9 9.8,26.3 43.3,-27.6 -2.1,-5.7 z"
   id="path72"
   style="fill:#fefcff;fill-opacity:1" />

		<path
   class="st6"
   d="m 1594.1,465.4 115.6,-43 10.8,29 -115.6,43 z"
   id="path73"
   style="fill:#fefcff;fill-opacity:1" />

		<path
   class="st6"
   d="m 1683.1,710.6 c -1.8,-4.9 -3.5,-10.2 -5,-15.9 -1.5,-5.7 -2.7,-11.1 -3.7,-16.3 -1,-5.2 -1.8,-9.7 -2.4,-13.3 l 23.2,-6.9 c 1,3.7 2.1,8.1 3.3,13 1.2,5 2.5,10 4,14.9 1.4,5 2.8,9.3 4.1,12.8 1.3,3.5 2.7,6.1 4.3,7.9 1.5,1.8 3.2,2.9 5.1,3.3 1.8,0.4 4,0.2 6.4,-0.8 2,-0.7 3.4,-1.8 4.2,-3.1 0.8,-1.3 1.2,-3.4 1.1,-6.2 -0.1,-2.8 -0.7,-6.8 -1.6,-11.8 -1.5,-7.8 -2.3,-14.4 -2.5,-20.1 -0.2,-5.6 0.5,-10.4 2,-14.4 1.5,-4 3.9,-7.4 7.4,-10.2 3.5,-2.8 8,-5.3 13.6,-7.4 9.5,-3.5 17.4,-4.5 23.9,-3 6.4,1.5 11.9,5 16.3,10.5 4.4,5.5 8.3,12.6 11.5,21.2 1.5,4 3,8.7 4.4,14 1.5,5.3 2.8,10.5 4.1,15.5 1.3,5.1 2.2,9.6 2.9,13.4 l -23.5,7.4 c -0.9,-3.5 -2,-7.6 -3.3,-12.3 -1.3,-4.7 -2.7,-9.4 -4,-14.1 -1.4,-4.7 -2.7,-8.8 -4,-12.3 -1.2,-3.3 -2.5,-5.9 -3.9,-7.8 -1.4,-2 -2.9,-3.2 -4.5,-3.7 -1.6,-0.5 -3.3,-0.4 -5.3,0.3 -2.2,0.8 -3.7,2 -4.6,3.5 -0.9,1.5 -1.3,3.6 -1.2,6.5 0.1,2.8 0.5,6.8 1.2,11.9 1.2,7.9 1.9,14.6 2,20.1 0.2,5.6 -0.4,10.3 -1.7,14.1 -1.3,3.9 -3.6,7.2 -6.9,10 -3.3,2.8 -7.9,5.2 -13.9,7.5 -9,3.4 -16.9,4.4 -23.5,3.2 -6.7,-1.2 -12.3,-4.5 -17,-10 -5.2,-5.3 -9.2,-12.5 -12.5,-21.4 z"
   id="path74"
   style="fill:#fefcff;fill-opacity:1" />

		<path
   class="st6"
   d="m 1764,921.9 115.6,-43 10.7,28.8 -34.5,12.8 c 1.2,1.6 2.6,3.5 4.1,5.8 1.5,2.2 3,4.6 4.4,7 1.4,2.4 2.5,4.6 3.2,6.7 2.2,6 3.3,11.2 3.4,15.8 0,4.6 -1.1,8.7 -3.5,12.3 -2.3,3.6 -6,6.9 -11,9.9 -5,3 -11.3,5.9 -19,8.8 l -43.3,16.1 -10.8,-29 40.8,-15.2 c 4.7,-1.8 8.4,-3.5 11.1,-5.1 2.7,-1.6 4.4,-3.4 5.1,-5.4 0.8,-2 0.6,-4.4 -0.5,-7.3 -0.5,-1.5 -1.2,-2.9 -2.1,-4.4 -0.9,-1.5 -1.7,-2.9 -2.6,-4.2 -0.9,-1.3 -1.7,-2.4 -2.4,-3.3 l -58.1,21.6 z"
   id="path75"
   style="fill:#fefcff;fill-opacity:1" />

		<path
   class="st6"
   d="m 1870.2,1213.3 c -3.7,-9.9 -5.1,-18.3 -4.2,-25.3 0.9,-7 3.9,-12.9 9.3,-17.7 5.3,-4.9 12.8,-9.1 22.4,-12.6 10,-3.7 18.9,-5.3 26.6,-4.8 7.7,0.5 14.3,3.2 19.9,8 5.6,4.8 10.1,11.9 13.5,21.2 5,13.4 5.6,24.6 2,33.7 -3.6,9.1 -12.1,16.1 -25.4,21.1 l -14.4,3.8 -19,-51 c -4.4,1.7 -7.3,4 -8.7,6.7 -1.4,2.7 -1.3,6.4 0.5,11.1 1.3,3.6 2.9,7.6 4.7,12 1.8,4.4 3.7,8.7 5.5,13.1 1.9,4.4 3.5,8 4.8,11 l -18.7,7.7 c -1.6,-2.7 -3.6,-6.2 -6,-10.4 -2.3,-4.2 -4.6,-8.8 -6.9,-13.5 -2.3,-5 -4.3,-9.6 -5.9,-14.1 z m 47.2,-30 8.8,23.6 c 5.6,-2.1 9.2,-4.5 10.8,-7.1 1.6,-2.6 1.6,-6 0.1,-10 -1,-2.8 -2.4,-4.9 -4.1,-6.4 -1.7,-1.4 -3.8,-2.1 -6.3,-2.1 -2.5,0.1 -5.6,0.7 -9.3,2 z"
   id="path76"
   style="fill:#fefcff;fill-opacity:1" />

		<path
   class="st6"
   d="m 1950.9,1424.3 83,-30.9 10.7,28.8 -4.8,1.8 c 1.6,1.3 3.4,3 5.3,4.9 1.9,2 3.7,4.1 5.4,6.5 1.7,2.4 3,4.7 3.9,7.1 2.2,6 3.3,11.2 3.3,15.7 0,4.5 -1.2,8.6 -3.7,12.3 -2.5,3.7 -6.2,7 -11.3,10.1 -5.1,3.1 -11.5,6.1 -19.3,9 l -42.4,15.8 -10.8,-29.1 40.8,-15.2 c 4.7,-1.8 8.4,-3.5 11.1,-5.1 2.7,-1.6 4.4,-3.4 5.1,-5.4 0.8,-2 0.7,-4.3 -0.3,-7 -0.6,-1.6 -1.3,-3.1 -2.2,-4.6 -0.9,-1.5 -1.8,-2.9 -2.8,-4.2 -1,-1.3 -1.9,-2.4 -2.7,-3.2 l -57.6,21.4 z"
   id="path77"
   style="fill:#fefcff;fill-opacity:1" />

		<path
   class="st6"
   d="m 2052.5,1703.3 c -3.6,-9.5 -4,-17.5 -1.4,-23.8 2.6,-6.4 8.6,-11.3 17.8,-14.7 6.6,-2.5 12.1,-3.1 16.6,-1.9 4.5,1.2 8.3,4 11.5,8.3 3.2,4.3 6.3,9.8 9.1,16.4 l 7.5,16.6 3.6,-1.4 c 2.8,-1 4.4,-2.6 4.8,-4.8 0.5,-2.2 0.1,-4.8 -1.1,-7.9 -1.3,-3.4 -2.8,-7.1 -4.6,-11.3 -1.8,-4.2 -3.6,-8.2 -5.5,-12.2 -1.8,-3.9 -3.5,-7.3 -4.9,-10.2 l 19.3,-8.2 c 1.9,2.9 4.1,6.3 6.5,10.3 2.4,4 4.7,8.3 6.9,12.9 2.3,4.5 4.1,8.9 5.7,13 2.8,7.5 4.4,14.3 4.8,20.4 0.4,6.1 -0.9,11.3 -3.9,15.7 -3,4.4 -8.2,7.9 -15.6,10.7 l -35,13 c -0.9,0.7 -1.4,1.8 -1.6,3.2 -0.2,1.4 -0.2,2.9 0.1,4.3 l -18.8,6.4 c -0.8,-1.8 -1.7,-3.6 -2.6,-5.5 -1,-1.9 -1.8,-3.8 -2.4,-5.5 -0.6,-1.7 -1.1,-3.2 -1.4,-4.4 -1.1,-3.4 -1.6,-6.5 -1.2,-9.1 0.3,-2.7 0.8,-4.7 1.6,-6.1 -1.4,-1.4 -3.1,-3.3 -5.1,-5.8 -2,-2.5 -3.9,-5.3 -5.8,-8.4 -2,-3.2 -3.6,-6.5 -4.9,-10 z m 22.9,-0.1 c 0.6,1.7 1.4,3.3 2.4,4.8 1,1.5 2,2.9 3.2,4.2 1.1,1.3 2.1,2.3 2.8,3.1 l 13.5,-5 -5.7,-11.9 c -1.2,-2.6 -2.8,-4.3 -4.6,-5.1 -1.9,-0.8 -4,-0.7 -6.4,0.2 -2.4,0.9 -4.1,2.2 -5.1,3.8 -0.9,1.5 -1,3.5 -0.1,5.9 z"
   id="path78"
   style="fill:#fefcff;fill-opacity:1" />

		<path
   class="st6"
   d="m 2138.1,1927.1 83,-30.9 10.7,28.8 -83,30.9 z m 92.8,-34.8 21.6,-8 10.8,29.1 -21.6,8 z"
   id="path79"
   style="fill:#fefcff;fill-opacity:1" />

		<path
   class="st6"
   d="m 2214.5,2132.4 59.9,-22.3 -2.5,-6.7 23.1,-8.6 2.5,6.7 3,-1.1 c 7.8,-2.9 14.3,-4.4 19.4,-4.6 5.2,-0.1 9.5,1.4 13,4.6 3.5,3.2 6.5,8.2 9.1,15 0.8,2.2 1.6,4.7 2.4,7.4 0.8,2.7 1.5,5.3 2.1,7.9 0.6,2.5 1.1,4.5 1.4,6.1 l -21.2,7.7 c -0.6,-1.7 -1.2,-3.4 -1.8,-5.2 -0.6,-1.8 -1.1,-3.3 -1.6,-4.7 -0.8,-2.1 -1.7,-3.7 -2.7,-4.8 -1,-1.1 -2.2,-1.7 -3.5,-1.8 -1.3,-0.1 -3,0.2 -5.1,1 l -3.6,1.4 6.5,17.3 -23.1,8.6 -6.5,-17.3 -59.9,22.3 z"
   id="path80"
   style="fill:#fefcff;fill-opacity:1" />

		<path
   class="st6"
   d="m 2294.3,2346.8 83,-30.9 10.7,28.8 -83,30.9 z m 92.8,-34.8 21.6,-8 10.8,29.1 -21.6,8 z"
   id="path81"
   style="fill:#fefcff;fill-opacity:1" />

	</g>
  </g>
</svg>
