<?xml version="1.0" encoding="utf-8"?>
<!-- Generator: Adobe Illustrator 22.0.1, SVG Export Plug-In . SVG Version: 6.00 Build 0)  -->
<svg version="1.1" id="Layer_1" xmlns="http://www.w3.org/2000/svg" xmlns:xlink="http://www.w3.org/1999/xlink" x="0px" y="0px"
	 viewBox="0 0 32 32" style="enable-background:new 0 0 32 32;" xml:space="preserve">
<style type="text/css">
	.st0{clip-path:url(#SVGID_2_);}
	.st1{clip-path:url(#SVGID_4_);fill:#1A5BA6;}
	.st2{clip-path:url(#SVGID_4_);fill:#7C7C7C;}
</style>
<g>
	<g>
		<defs>
			<rect id="SVGID_1_" x="-8.5" y="-8.5" width="49" height="49"/>
		</defs>
		<clipPath id="SVGID_2_">
			<use xlink:href="#SVGID_1_"  style="overflow:visible;"/>
		</clipPath>
		<g class="st0">
			<defs>
				<rect id="SVGID_3_" x="-8.5" y="-8.5" width="49" height="49"/>
			</defs>
			<clipPath id="SVGID_4_">
				<use xlink:href="#SVGID_3_"  style="overflow:visible;"/>
			</clipPath>
			<path class="st1" d="M23.2,28.7l-6.7-18l-0.2-0.6l-0.2-0.6l-0.2,0.6l-0.2,0.6L13,18.3c-0.1,0-0.1,0.1-0.1,0.2
				c-0.1,0.1-0.1,0.2-0.1,0.3c0,0,0,0.1,0,0.1l-3.5,9.8c-0.3,0.1-0.5,0.3-0.5,0.6c0,0.4,0.3,0.7,0.7,0.7c0.4,0,0.7-0.3,0.7-0.7
				c0-0.1,0-0.2-0.1-0.3l3.4-9.6c0.2,0,0.3-0.1,0.4-0.2l5,0l3.6,9.7c-0.1,0.1-0.1,0.2-0.1,0.4c0,0.4,0.3,0.7,0.7,0.7
				c0.4,0,0.7-0.3,0.7-0.7c0-0.1,0-0.2-0.1-0.3C23.5,28.9,23.4,28.8,23.2,28.7 M9.4,29.7c-0.2,0-0.3-0.1-0.3-0.3
				c0-0.1,0-0.1,0.1-0.2C9.2,29.1,9.3,29,9.4,29c0.2,0,0.3,0.1,0.3,0.3c0,0,0,0,0,0C9.7,29.6,9.6,29.7,9.4,29.7 M15.5,17.8
				c-0.2,0-0.3-0.1-0.3-0.3v0c0,0,0,0,0,0c0-0.1,0.1-0.2,0.1-0.2c0.1,0,0.1-0.1,0.2-0.1c0.1,0,0.2,0,0.2,0.1c0.1,0,0.1,0.1,0.1,0.2
				c0,0,0,0,0,0.1v0C15.8,17.6,15.7,17.8,15.5,17.8 M16.9,16.4c-0.2,0-0.3-0.1-0.3-0.3c0,0,0,0,0,0c0-0.1,0.1-0.2,0.1-0.2
				c0.1,0,0.1-0.1,0.2-0.1c0.1,0,0.2,0,0.2,0.1c0.1,0,0.1,0.1,0.1,0.2c0,0,0,0,0,0.1C17.2,16.2,17,16.4,16.9,16.4 M16.2,11.9
				l1.4,3.7l-0.2,0c-0.1-0.1-0.2-0.2-0.3-0.2c-0.1,0-0.1,0-0.2,0c-0.1,0-0.1,0-0.2,0c-0.1,0-0.3,0.1-0.4,0.2c0,0,0,0,0,0.1
				c-0.1,0.1-0.1,0.2-0.1,0.3c0,0.2,0.1,0.3,0.1,0.4c0.1,0.2,0.3,0.2,0.5,0.2c0.2,0,0.4-0.1,0.5-0.3l0.5,0L18,17l-2,0
				c-0.1-0.1-0.2-0.2-0.3-0.2c-0.1,0-0.1,0-0.2,0c-0.1,0-0.1,0-0.2,0c-0.2,0-0.3,0.1-0.4,0.2c0,0,0,0,0,0.1
				c-0.1,0.1-0.1,0.2-0.1,0.3v0c0,0.2,0.1,0.3,0.2,0.4c0.1,0.1,0.3,0.2,0.5,0.2c0.2,0,0.4-0.1,0.5-0.2l2.4,0l0.2,0.5l-4.6,0
				c0,0-0.1-0.1-0.1-0.1l0.1-0.4l0.1-0.4l0.1-0.4l0.2-0.6l0.1-0.4l0.1-0.4L16.2,11.9z M13.1,18.8C13.1,18.8,13.1,18.8,13.1,18.8
				c0-0.1,0-0.1,0-0.1c0-0.1,0.1-0.2,0.1-0.2c0.1,0,0.1-0.1,0.2-0.1c0.1,0,0.2,0,0.2,0.1c0,0,0.1,0.1,0.1,0.1c0,0,0,0,0,0
				c0,0,0,0,0,0.1c0,0,0,0,0,0.1c0,0.1-0.1,0.2-0.1,0.2c-0.1,0-0.1,0.1-0.2,0.1C13.2,19.1,13.1,19,13.1,18.8 M23,29.7
				c-0.2,0-0.3-0.1-0.3-0.3c0,0,0,0,0-0.1c0-0.1,0-0.2,0.1-0.3c0.1,0,0.1-0.1,0.2-0.1c0.1,0,0.2,0.1,0.3,0.2c0,0,0,0.1,0,0.1
				c0,0,0,0,0,0.1C23.3,29.5,23.2,29.7,23,29.7"/>
			<path class="st1" d="M25.2,29.9L16.6,6.5l-0.2-0.6v0l-0.2-0.6l-0.2,0.6l-0.2,0.6L7.3,30h0c-0.3,0.1-0.5,0.3-0.5,0.6
				c0,0.4,0.3,0.7,0.7,0.7c0.4,0,0.7-0.3,0.7-0.7c0-0.1,0-0.2-0.1-0.3l7.3-20.4l0.2-0.5l0.6-1.5l0.6,1.5l0.2,0.5l7.5,20.4
				c-0.1,0.1-0.1,0.2-0.1,0.4c0,0.4,0.3,0.7,0.7,0.7c0.4,0,0.7-0.3,0.7-0.7c0-0.1,0-0.2-0.1-0.3C25.5,30.1,25.4,30,25.2,29.9
				 M7.5,30.9c-0.2,0-0.3-0.1-0.3-0.3c0-0.1,0-0.2,0.1-0.2c0.1-0.1,0.1-0.1,0.2-0.1c0.2,0,0.3,0.1,0.3,0.3c0,0,0,0,0,0
				C7.8,30.8,7.7,30.9,7.5,30.9 M25,30.9c-0.2,0-0.3-0.1-0.3-0.3c0,0,0,0,0,0c0-0.1,0.1-0.2,0.1-0.2c0.1,0,0.1-0.1,0.2-0.1
				c0.1,0,0.2,0,0.2,0.1c0,0,0.1,0.1,0.1,0.2c0,0,0,0,0,0.1C25.3,30.7,25.2,30.9,25,30.9"/>
			<path class="st1" d="M26.3,28.1c-0.1-0.2-0.2-0.3-0.4-0.3L17.4,4.6h0l-0.8-2.2l-0.2-0.6v0l-0.2-0.6l-0.2,0.6l-0.2,0.6l-0.8,2.2
				L6.5,27.9C6.2,27.9,6,28.2,6,28.5c0,0.4,0.3,0.7,0.7,0.7c0.4,0,0.7-0.3,0.7-0.7c0-0.1,0-0.2-0.1-0.3l8.1-22.5l0.2-0.6v0l0.1-0.2
				l0-0.1l0.4-1.2l0.4,1.2l0,0.1L16.7,5l0.2,0.6l8.3,22.4c-0.1,0.1-0.1,0.2-0.1,0.3c0,0.4,0.3,0.7,0.7,0.7c0.4,0,0.7-0.3,0.7-0.7
				C26.4,28.3,26.4,28.2,26.3,28.1 M6.7,28.8c-0.2,0-0.3-0.1-0.3-0.3c0-0.1,0-0.2,0.1-0.3c0.1,0,0.1-0.1,0.2-0.1
				c0.2,0,0.3,0.1,0.3,0.3c0,0,0,0,0,0.1C7,28.7,6.9,28.8,6.7,28.8 M25.7,28.8c-0.2,0-0.3-0.1-0.3-0.3c0,0,0,0,0,0
				c0-0.1,0.1-0.2,0.1-0.2c0.1,0,0.1-0.1,0.2-0.1c0.1,0,0.2,0,0.2,0.1c0.1,0,0.1,0.1,0.1,0.2c0,0,0,0,0,0.1
				C26.1,28.6,25.9,28.7,25.7,28.8"/>
			<path class="st2" d="M6.8,26.5l-1.1-0.8l0.2-0.5l1.4,0.1l-0.1,0.3l-0.2,0L6.7,26l0.2,0.1L6.8,26.5z M6.5,25.9l0.1-0.3L6,25.5
				l0,0.1L6.5,25.9z"/>
			<path class="st2" d="M8.2,22.5c0,0,0,0.1-0.1,0.1c0,0,0,0.1-0.1,0.1c0,0,0,0.1-0.1,0.1l-1.3-0.5l0.1-0.3l0.4,0.1c0,0,0,0,0-0.1
				c0,0,0-0.1,0-0.1c0,0,0-0.1,0-0.1c0-0.1,0.1-0.2,0.1-0.2c0.1,0,0.1-0.1,0.2-0.1c0.1,0,0.2,0,0.3,0.1C8,21.9,8.1,22,8.2,22
				c0.1,0.1,0.1,0.1,0.1,0.2C8.3,22.3,8.3,22.4,8.2,22.5 M8,22.4c0,0,0-0.1,0-0.1c0,0,0-0.1-0.1-0.1c0,0-0.1,0-0.1-0.1
				c-0.1,0-0.1,0-0.1,0c0,0-0.1,0-0.1,0c0,0,0,0,0,0.1c0,0,0,0,0,0c0,0,0,0,0,0.1c0,0,0,0,0,0L8,22.4C7.9,22.5,7.9,22.5,8,22.4
				C8,22.5,8,22.4,8,22.4"/>
			<path class="st2" d="M9.4,19.3c0,0.1,0,0.1-0.1,0.1c0,0-0.1,0.1-0.1,0.1c0,0-0.1,0-0.1,0c0,0-0.1,0-0.2,0c-0.1,0-0.1,0-0.2-0.1
				c-0.1,0-0.2-0.1-0.3-0.1c-0.1-0.1-0.1-0.1-0.1-0.2c0-0.1,0-0.2,0-0.3c0,0,0,0,0-0.1c0,0,0,0,0-0.1c0,0,0,0,0-0.1l-0.4-0.1
				l0.1-0.3l1.3,0.5l-0.1,0.3l0,0c0,0,0,0,0,0.1C9.4,19.2,9.4,19.2,9.4,19.3C9.4,19.2,9.4,19.3,9.4,19.3 M9.2,19.1
				C9.2,19.1,9.2,19.1,9.2,19.1c0-0.1,0-0.1,0-0.1c0,0,0,0,0,0l-0.4-0.1c0,0,0,0,0,0c0,0,0,0,0,0c0,0,0,0,0,0c0,0,0,0.1,0,0.1
				c0,0,0,0.1,0.1,0.1c0,0,0.1,0,0.1,0.1c0,0,0.1,0,0.1,0C9,19.2,9,19.2,9.2,19.1C9.1,19.2,9.1,19.2,9.2,19.1
				C9.1,19.2,9.1,19.1,9.2,19.1"/>
			<path class="st2" d="M10.6,16c0,0.1-0.1,0.1-0.1,0.2c-0.1,0-0.1,0-0.2,0s-0.2,0-0.3-0.1L9.5,16l0.1-0.3l0.5,0.2
				c0.1,0,0.1,0,0.1,0c0,0,0.1,0,0.1,0c0,0,0,0,0-0.1c0,0,0-0.1,0-0.1c0,0,0-0.1,0-0.1l-0.6-0.2l0.1-0.3l0.9,0.3l-0.1,0.3l-0.1,0
				c0,0.1,0,0.1,0,0.1C10.6,15.9,10.6,16,10.6,16"/>
			
				<rect x="10.9" y="11.9" transform="matrix(0.3363 -0.9417 0.9417 0.3363 -4.5451 18.7385)" class="st2" width="0.3" height="1.4"/>
			
				<rect x="11.8" y="9.1" transform="matrix(0.3363 -0.9417 0.9417 0.3363 -1.2892 17.8359)" class="st2" width="0.3" height="1.4"/>
			<path class="st2" d="M13.7,7.2c0,0.1-0.1,0.2-0.2,0.2c-0.1,0-0.2,0-0.3,0c-0.1,0-0.1-0.1-0.2-0.1c0,0,0-0.1,0-0.2
				c0-0.1,0-0.1,0-0.2l0.1-0.2l0,0c0,0-0.1,0-0.1,0c0,0,0,0,0,0.1c0,0,0,0.1,0,0.1c0,0,0,0.1,0,0.1c0,0,0,0.1,0,0.1l-0.2-0.1
				c0,0,0-0.1,0-0.1c0-0.1,0-0.1,0-0.2c0-0.1,0-0.1,0-0.2c0-0.1,0.1-0.2,0.1-0.2S13,6.4,13,6.4c0.1,0,0.1,0,0.2,0l0.4,0.1
				c0,0,0,0,0,0c0,0,0,0,0,0l0.2,0.1c0,0,0,0,0,0.1c0,0,0,0,0,0.1c0,0,0,0,0,0c0,0,0,0.1-0.1,0.1c0,0,0,0-0.1,0c0,0,0,0.1,0,0.1
				c0,0,0,0.1,0,0.1C13.7,7.1,13.7,7.2,13.7,7.2 M13.5,7C13.5,7,13.5,7,13.5,7c0-0.1,0-0.1,0-0.1c0,0,0,0,0,0l-0.2-0.1l0,0.1
				c0,0,0,0.1,0,0.1c0,0,0,0,0.1,0C13.4,7.1,13.4,7.1,13.5,7C13.5,7.1,13.5,7.1,13.5,7"/>
			<path class="st2" d="M14.8,4.2l-1.3-0.5l0.1-0.3L14,3.5c0,0,0,0,0-0.1c0,0,0-0.1,0-0.1c0,0,0-0.1,0-0.1c0-0.1,0.1-0.1,0.1-0.2
				c0,0,0.1-0.1,0.1-0.1c0,0,0.1,0,0.2,0c0.1,0,0.1,0,0.2,0.1l0.5,0.2L15,3.6l-0.5-0.2c-0.1,0-0.1,0-0.1,0c0,0-0.1,0-0.1,0
				c0,0,0,0,0,0.1c0,0,0,0,0,0.1c0,0,0,0,0,0.1c0,0,0,0,0,0l0.7,0.2L14.8,4.2z"/>
			<path class="st2" d="M17.1,3.2l1.3-0.1l0.2,0.5l-1.1,0.7L17.4,4l0.2-0.1l-0.1-0.4l-0.2,0L17.1,3.2z M17.7,3.5l0.1,0.3l0.5-0.3
				l0-0.1L17.7,3.5z"/>
			<rect x="18.2" y="5.8" transform="matrix(0.9373 -0.3486 0.3486 0.9373 -0.9161 6.9348)" class="st2" width="1.3" height="0.3"/>
			<path class="st2" d="M19.1,8.7c0-0.1,0-0.1-0.1-0.2c0-0.1,0-0.1,0-0.2c0-0.1,0-0.1,0-0.1l0.2-0.1c0,0,0,0.1,0,0.1
				c0,0.1,0,0.1,0,0.2c0,0.1,0,0.1,0,0.1c0,0,0,0.1,0,0.1c0,0,0,0,0.1,0c0,0,0,0,0.1,0c0,0,0,0,0,0c0,0,0,0,0-0.1c0,0,0-0.1,0-0.1
				c0-0.1,0-0.2,0-0.2c0-0.1,0-0.1,0-0.2c0,0,0-0.1,0.1-0.1c0,0,0.1-0.1,0.1-0.1c0.1,0,0.2,0,0.3,0c0.1,0,0.1,0.1,0.2,0.1
				c0,0.1,0.1,0.1,0.1,0.2c0,0,0,0.1,0,0.1c0,0.1,0,0.1,0,0.2c0,0.1,0,0.1,0,0.1l-0.2,0.1c0,0,0-0.1,0-0.1c0,0,0-0.1,0-0.1
				c0,0,0-0.1,0-0.1c0,0,0-0.1,0-0.1c0,0,0,0,0,0c0,0,0,0-0.1,0c0,0,0,0,0,0c0,0,0,0,0,0.1c0,0,0,0.1,0,0.1c0,0.1,0,0.2,0,0.2
				c0,0.1,0,0.1,0,0.1c0,0,0,0.1-0.1,0.1c0,0-0.1,0.1-0.1,0.1c-0.1,0-0.2,0-0.2,0c-0.1,0-0.1,0-0.2-0.1C19.2,8.9,19.1,8.8,19.1,8.7"
				/>
			<path class="st2" d="M19.9,10.9l1.2-0.5l0.1,0.3l-0.4,0.1c0,0,0,0,0,0.1c0,0,0,0,0,0.1c0,0,0,0,0,0.1c0,0.1,0,0.1,0,0.2
				c0,0,0,0.1,0,0.1c0,0-0.1,0.1-0.1,0.1c-0.1,0-0.1,0.1-0.2,0.1l-0.5,0.2l-0.1-0.3l0.4-0.2c0,0,0.1,0,0.1-0.1c0,0,0,0,0.1-0.1
				c0,0,0,0,0-0.1c0,0,0,0,0,0c0,0,0,0,0,0c0,0,0,0,0,0l-0.6,0.2L19.9,10.9z"/>
			<path class="st2" d="M21.1,14c0-0.1-0.1-0.2,0-0.3c0-0.1,0-0.1,0.1-0.2c0.1-0.1,0.1-0.1,0.2-0.1c0.1,0,0.2-0.1,0.3-0.1
				c0.1,0,0.2,0,0.2,0.1c0.1,0.1,0.1,0.1,0.1,0.2c0.1,0.1,0.1,0.3,0,0.4c0,0.1-0.1,0.2-0.3,0.2l-0.2,0l-0.2-0.5c0,0-0.1,0-0.1,0.1
				c0,0,0,0.1,0,0.1c0,0,0,0.1,0,0.1c0,0,0,0.1,0.1,0.1c0,0,0,0.1,0.1,0.1l-0.2,0.1c0,0,0-0.1-0.1-0.1c0,0,0-0.1-0.1-0.1
				C21.1,14.1,21.1,14.1,21.1,14 M21.6,13.7l0.1,0.3c0.1,0,0.1,0,0.1-0.1c0,0,0-0.1,0-0.1c0,0,0-0.1,0-0.1
				C21.7,13.7,21.7,13.7,21.6,13.7C21.6,13.7,21.6,13.7,21.6,13.7"/>
			<path class="st2" d="M21.9,16.3l0.9-0.3l0.1,0.3l-0.1,0c0,0,0,0,0.1,0.1c0,0,0,0,0.1,0.1c0,0,0,0,0,0.1c0,0.1,0,0.1,0,0.2
				c0,0,0,0.1,0,0.1c0,0-0.1,0.1-0.1,0.1c-0.1,0-0.1,0.1-0.2,0.1l-0.5,0.2l-0.1-0.3l0.4-0.2c0,0,0.1,0,0.1-0.1s0,0,0.1-0.1
				c0,0,0,0,0-0.1c0,0,0,0,0,0c0,0,0,0,0,0c0,0,0,0,0,0L22,16.6L21.9,16.3z"/>
			<path class="st2" d="M23,19.2c0-0.1,0-0.2,0-0.3c0-0.1,0.1-0.1,0.2-0.2c0.1,0,0.1,0,0.2,0s0.1,0,0.1,0.1c0,0,0.1,0.1,0.1,0.2
				l0.1,0.2l0,0c0,0,0,0,0.1-0.1c0,0,0-0.1,0-0.1c0,0,0-0.1,0-0.1c0,0,0-0.1-0.1-0.1c0,0,0-0.1-0.1-0.1l0.2-0.1c0,0,0,0.1,0.1,0.1
				c0,0,0,0.1,0.1,0.1c0,0,0,0.1,0.1,0.1c0,0.1,0,0.2,0.1,0.2c0,0.1,0,0.1,0,0.2s-0.1,0.1-0.2,0.1l-0.4,0.1c0,0,0,0,0,0c0,0,0,0,0,0
				l-0.2,0.1c0,0,0,0,0-0.1c0,0,0,0,0-0.1c0,0,0,0,0,0c0,0,0-0.1,0-0.1c0,0,0,0,0-0.1c0,0,0,0-0.1-0.1c0,0,0-0.1-0.1-0.1
				C23,19.3,23,19.3,23,19.2 M23.3,19.2C23.3,19.3,23.3,19.3,23.3,19.2C23.3,19.3,23.3,19.3,23.3,19.2c0.1,0.1,0.1,0.1,0.1,0.1
				l0.1-0.1l-0.1-0.1c0,0,0,0,0-0.1c0,0,0,0-0.1,0C23.3,19.1,23.3,19.2,23.3,19.2C23.2,19.2,23.2,19.2,23.3,19.2"/>
			<path class="st2" d="M23.9,21.6l0.9-0.3l0.1,0.3L24,21.9L23.9,21.6z M24.9,21.3l0.2-0.1l0.1,0.3L25,21.6L24.9,21.3z"/>
			<path class="st2" d="M24.7,23.8l0.6-0.2l0-0.1l0.2-0.1l0,0.1l0,0c0.1,0,0.2,0,0.2,0c0.1,0,0.1,0,0.1,0c0,0,0.1,0.1,0.1,0.2
				c0,0,0,0,0,0.1c0,0,0,0.1,0,0.1c0,0,0,0,0,0.1l-0.2,0.1c0,0,0,0,0-0.1c0,0,0,0,0,0c0,0,0,0,0-0.1c0,0,0,0,0,0c0,0,0,0-0.1,0l0,0
				l0.1,0.2l-0.2,0.1l-0.1-0.2l-0.6,0.2L24.7,23.8z"/>
			<path class="st2" d="M25.6,26.1l0.9-0.3l0.1,0.3l-0.9,0.3L25.6,26.1z M26.6,25.7l0.2-0.1l0.1,0.3L26.7,26L26.6,25.7z"/>
		</g>
	</g>
</g>
</svg>
